{"accessors":[{"bufferView":0,"componentType":5126,"count":222,"min":[19.963300704956056,0.0,-54.4640998840332],"max":[80.72250366210938,12.771400451660157,10.515000343322754],"type":"VEC3","name":"part000_vertices#0_POSITION"},{"bufferView":0,"byteOffset":12,"componentType":5120,"count":222,"type":"VEC4","name":"part000_vertices#0_TANGENT"},{"bufferView":0,"byteOffset":16,"componentType":5120,"count":222,"type":"VEC4","name":"part000_vertices#0_NORMAL"},{"bufferView":0,"byteOffset":20,"componentType":5122,"count":222,"type":"VEC2","name":"part000_vertices#0_TEXCOORD_0"},{"bufferView":0,"byteOffset":24,"componentType":5122,"count":222,"type":"VEC2","name":"part000_vertices#0_TEXCOORD_1"},{"bufferView":0,"byteOffset":28,"componentType":5123,"count":222,"type":"VEC4","name":"part000_vertices#0_COLOR_0"},{"bufferView":1,"componentType":5123,"count":396,"type":"SCALAR","name":"part000_indices#0"}],"asset":{"generator":"ModelConverterX","version":"2.0","extensions":{"ASOBO_asset_optimized":{"BoundingBoxMax":[80.72250366210938,12.771400451660157,10.515000343322754],"BoundingBoxMin":[19.963300704956056,0.0,-54.4640998840332],"MajorVersion":4,"MinorVersion":2}}},"bufferViews":[{"buffer":0,"byteLength":7992,"byteStride":36,"byteOffset":72,"target":34962,"name":"BufferViewVertexND"},{"buffer":0,"byteLength":792,"byteOffset":8168,"target":34963,"name":"BufferViewIndex"}],"extensionsUsed":["MSFT_texture_dds","ASOBO_asset_optimized"],"extensionsRequired":["MSFT_texture_dds"],"materials":[{"name":"glTF_Material","pbrMetallicRoughness":{"metallicFactor":0.0,"baseColorTexture":{"index":0}}}],"meshes":[{"primitives":[{"attributes":{"COLOR_0":5,"NORMAL":2,"POSITION":0,"TANGENT":1,"TEXCOORD_0":3,"TEXCOORD_1":4},"indices":6,"material":0,"mode":4,"extras":{"ASOBO_primitive":{"PrimitiveCount":132,"VertexType":"VTX","VertexVersion":2}}}],"name":"part000"}],"nodes":[{"name":"node0","children":[1]},{"mesh":0,"name":"node1"}],"scene":0,"scenes":[{"nodes":[0]}],"textures":[{"extensions":{"MSFT_texture_dds":{"source":0}}}],"buffers":[{"byteLength":8960,"uri":"h1.bin"}],"images":[{"uri":"H1H2.PNG.DDS","extras":"ASOBO_image_converted_meta"}]}
